<svg width="192" height="192" viewBox="0 0 192 192" fill="none" xmlns="http://www.w3.org/2000/svg">
<rect width="192" height="192" rx="25" fill="#805CD6"/>
<g clip-path="url(#clip0_28_31)" filter="url(#filter0_d_28_31)">
<path fill-rule="evenodd" clip-rule="evenodd" d="M60.5984 48.2295C57.8053 48.2295 55.541 50.4937 55.541 53.2868V124.09C55.541 126.883 57.8053 129.147 60.5984 129.147H131.402C134.195 129.147 136.459 126.883 136.459 124.09V53.2868C136.459 50.4937 134.195 48.2295 131.402 48.2295H60.5984ZM45.4263 53.2868C45.4263 44.9075 52.2191 38.1147 60.5984 38.1147H131.402C139.781 38.1147 146.574 44.9075 146.574 53.2868V124.09C146.574 132.469 139.781 139.262 131.402 139.262H60.5984C52.2191 139.262 45.4263 132.469 45.4263 124.09V53.2868Z" fill="white"/>
<path fill-rule="evenodd" clip-rule="evenodd" d="M70.7131 88.6884C70.7131 85.8953 72.9774 83.631 75.7705 83.631H116.229C119.023 83.631 121.287 85.8953 121.287 88.6884C121.287 91.4815 119.023 93.7458 116.229 93.7458H75.7705C72.9774 93.7458 70.7131 91.4815 70.7131 88.6884Z" fill="white"/>
<path fill-rule="evenodd" clip-rule="evenodd" d="M92.4239 64.8828C94.3989 62.9078 97.6011 62.9078 99.5761 64.8828L119.806 85.1123C121.781 87.0873 121.781 90.2895 119.806 92.2645L99.5761 112.494C97.6011 114.469 94.3989 114.469 92.4239 112.494C90.4489 110.519 90.4489 107.317 92.4239 105.342L109.077 88.6884L92.4239 72.035C90.4489 70.06 90.4489 66.8578 92.4239 64.8828Z" fill="white"/>
</g>
<g filter="url(#filter1_d_28_31)">
<path d="M68.2676 151.846V160.377H66.3633V151.846H68.2676ZM70.8633 151.846V153.328H63.8203V151.846H70.8633ZM73.5 151.377V160.377H71.6719V151.377H73.5ZM73.2598 156.984L72.8027 156.996C72.8027 156.551 72.8574 156.142 72.9668 155.771C73.0801 155.396 73.2402 155.07 73.4473 154.793C73.6543 154.516 73.9023 154.301 74.1914 154.148C74.4844 153.996 74.8066 153.92 75.1582 153.92C75.4707 153.92 75.7559 153.965 76.0137 154.055C76.2715 154.144 76.4941 154.287 76.6816 154.482C76.8691 154.678 77.0137 154.933 77.1152 155.25C77.2168 155.566 77.2676 155.951 77.2676 156.404V160.377H75.4277V156.392C75.4277 156.123 75.3887 155.912 75.3105 155.76C75.2363 155.607 75.127 155.5 74.9824 155.437C74.8418 155.375 74.6699 155.344 74.4668 155.344C74.2285 155.344 74.0312 155.387 73.875 155.473C73.7188 155.555 73.5957 155.67 73.5059 155.818C73.416 155.967 73.3516 156.141 73.3125 156.34C73.2773 156.539 73.2598 156.754 73.2598 156.984ZM81.4512 160.494C80.9473 160.494 80.4961 160.414 80.0977 160.254C79.6992 160.094 79.3613 159.873 79.084 159.592C78.8105 159.307 78.6016 158.978 78.457 158.607C78.3125 158.236 78.2402 157.84 78.2402 157.418V157.195C78.2402 156.723 78.3066 156.287 78.4395 155.889C78.5723 155.49 78.7656 155.144 79.0195 154.851C79.2773 154.555 79.5938 154.326 79.9688 154.166C80.3438 154.002 80.7715 153.92 81.252 153.92C81.7012 153.92 82.1016 153.994 82.4531 154.142C82.8047 154.287 83.1016 154.496 83.3438 154.769C83.5859 155.039 83.7695 155.365 83.8945 155.748C84.0234 156.127 84.0879 156.553 84.0879 157.025V157.775H78.9785V156.598H82.2949V156.457C82.2949 156.234 82.2539 156.039 82.1719 155.871C82.0938 155.703 81.9766 155.574 81.8203 155.484C81.668 155.391 81.4746 155.344 81.2402 155.344C81.0176 155.344 80.832 155.391 80.6836 155.484C80.5352 155.578 80.416 155.711 80.3262 155.883C80.2402 156.051 80.1777 156.248 80.1387 156.474C80.0996 156.697 80.0801 156.937 80.0801 157.195V157.418C80.0801 157.664 80.1133 157.889 80.1797 158.092C80.2461 158.295 80.3438 158.469 80.4727 158.613C80.6016 158.758 80.7578 158.871 80.9414 158.953C81.125 159.035 81.334 159.076 81.5684 159.076C81.8574 159.076 82.1328 159.021 82.3945 158.912C82.6562 158.799 82.8828 158.623 83.0742 158.385L83.9297 159.363C83.8008 159.551 83.6191 159.732 83.3848 159.908C83.1543 160.08 82.877 160.221 82.5527 160.33C82.2285 160.439 81.8613 160.494 81.4512 160.494ZM89.9707 151.846V160.377H88.0605V151.846H89.9707ZM93.3281 155.443V156.92H89.4375V155.443H93.3281ZM93.7031 151.846V153.328H89.4375V151.846H93.7031ZM97.4004 160.494C96.8965 160.494 96.4453 160.414 96.0469 160.254C95.6484 160.094 95.3105 159.873 95.0332 159.592C94.7598 159.307 94.5508 158.978 94.4062 158.607C94.2617 158.236 94.1895 157.84 94.1895 157.418V157.195C94.1895 156.723 94.2559 156.287 94.3887 155.889C94.5215 155.49 94.7148 155.144 94.9688 154.851C95.2266 154.555 95.543 154.326 95.918 154.166C96.293 154.002 96.7207 153.92 97.2012 153.92C97.6504 153.92 98.0508 153.994 98.4023 154.142C98.7539 154.287 99.0508 154.496 99.293 154.769C99.5352 155.039 99.7188 155.365 99.8438 155.748C99.9727 156.127 100.037 156.553 100.037 157.025V157.775H94.9277V156.598H98.2441V156.457C98.2441 156.234 98.2031 156.039 98.1211 155.871C98.043 155.703 97.9258 155.574 97.7695 155.484C97.6172 155.391 97.4238 155.344 97.1895 155.344C96.9668 155.344 96.7812 155.391 96.6328 155.484C96.4844 155.578 96.3652 155.711 96.2754 155.883C96.1895 156.051 96.127 156.248 96.0879 156.474C96.0488 156.697 96.0293 156.937 96.0293 157.195V157.418C96.0293 157.664 96.0625 157.889 96.1289 158.092C96.1953 158.295 96.293 158.469 96.4219 158.613C96.5508 158.758 96.707 158.871 96.8906 158.953C97.0742 159.035 97.2832 159.076 97.5176 159.076C97.8066 159.076 98.082 159.021 98.3438 158.912C98.6055 158.799 98.832 158.623 99.0234 158.385L99.8789 159.363C99.75 159.551 99.5684 159.732 99.334 159.908C99.1035 160.08 98.8262 160.221 98.502 160.33C98.1777 160.439 97.8105 160.494 97.4004 160.494ZM104.15 154.037V155.32H100.389V154.037H104.15ZM101.25 152.467H103.084V158.391C103.084 158.566 103.105 158.701 103.148 158.795C103.191 158.889 103.262 158.955 103.359 158.994C103.457 159.029 103.582 159.047 103.734 159.047C103.844 159.047 103.938 159.043 104.016 159.035C104.094 159.027 104.166 159.017 104.232 159.006V160.33C104.076 160.381 103.91 160.42 103.734 160.447C103.559 160.478 103.367 160.494 103.16 160.494C102.766 160.494 102.424 160.43 102.135 160.301C101.85 160.172 101.631 159.969 101.479 159.691C101.326 159.41 101.25 159.045 101.25 158.596V152.467ZM107.678 159.07C107.873 159.07 108.043 159.033 108.188 158.959C108.332 158.885 108.443 158.781 108.521 158.648C108.604 158.512 108.645 158.348 108.645 158.156H110.367C110.367 158.617 110.248 159.023 110.01 159.375C109.775 159.726 109.459 160.002 109.061 160.201C108.662 160.396 108.213 160.494 107.713 160.494C107.221 160.494 106.791 160.414 106.424 160.254C106.057 160.09 105.75 159.861 105.504 159.568C105.258 159.275 105.072 158.935 104.947 158.549C104.826 158.158 104.766 157.736 104.766 157.283V157.131C104.766 156.682 104.826 156.262 104.947 155.871C105.072 155.48 105.258 155.139 105.504 154.846C105.75 154.553 106.055 154.326 106.418 154.166C106.785 154.002 107.215 153.92 107.707 153.92C108.227 153.92 108.686 154.019 109.084 154.219C109.486 154.418 109.801 154.705 110.027 155.08C110.254 155.451 110.367 155.898 110.367 156.422H108.645C108.645 156.219 108.607 156.037 108.533 155.877C108.463 155.713 108.354 155.584 108.205 155.49C108.061 155.392 107.881 155.344 107.666 155.344C107.443 155.344 107.26 155.392 107.115 155.49C106.975 155.584 106.867 155.715 106.793 155.883C106.719 156.051 106.668 156.242 106.641 156.457C106.613 156.668 106.6 156.892 106.6 157.131V157.283C106.6 157.525 106.613 157.756 106.641 157.974C106.668 158.189 106.719 158.379 106.793 158.543C106.871 158.707 106.98 158.836 107.121 158.93C107.262 159.023 107.447 159.07 107.678 159.07ZM113.062 151.377V160.377H111.234V151.377H113.062ZM112.822 156.984L112.365 156.996C112.365 156.551 112.42 156.142 112.529 155.771C112.643 155.396 112.803 155.07 113.01 154.793C113.217 154.516 113.465 154.301 113.754 154.148C114.047 153.996 114.369 153.92 114.721 153.92C115.033 153.92 115.318 153.965 115.576 154.055C115.834 154.144 116.057 154.287 116.244 154.482C116.432 154.678 116.576 154.933 116.678 155.25C116.779 155.566 116.83 155.951 116.83 156.404V160.377H114.99V156.392C114.99 156.123 114.951 155.912 114.873 155.76C114.799 155.607 114.689 155.5 114.545 155.437C114.404 155.375 114.232 155.344 114.029 155.344C113.791 155.344 113.594 155.387 113.438 155.473C113.281 155.555 113.158 155.67 113.068 155.818C112.979 155.967 112.914 156.141 112.875 156.34C112.84 156.539 112.822 156.754 112.822 156.984ZM121.014 160.494C120.51 160.494 120.059 160.414 119.66 160.254C119.262 160.094 118.924 159.873 118.646 159.592C118.373 159.307 118.164 158.978 118.02 158.607C117.875 158.236 117.803 157.84 117.803 157.418V157.195C117.803 156.723 117.869 156.287 118.002 155.889C118.135 155.49 118.328 155.144 118.582 154.851C118.84 154.555 119.156 154.326 119.531 154.166C119.906 154.002 120.334 153.92 120.814 153.92C121.264 153.92 121.664 153.994 122.016 154.142C122.367 154.287 122.664 154.496 122.906 154.769C123.148 155.039 123.332 155.365 123.457 155.748C123.586 156.127 123.65 156.553 123.65 157.025V157.775H118.541V156.598H121.857V156.457C121.857 156.234 121.816 156.039 121.734 155.871C121.656 155.703 121.539 155.574 121.383 155.484C121.23 155.391 121.037 155.344 120.803 155.344C120.58 155.344 120.395 155.391 120.246 155.484C120.098 155.578 119.979 155.711 119.889 155.883C119.803 156.051 119.74 156.248 119.701 156.474C119.662 156.697 119.643 156.937 119.643 157.195V157.418C119.643 157.664 119.676 157.889 119.742 158.092C119.809 158.295 119.906 158.469 120.035 158.613C120.164 158.758 120.32 158.871 120.504 158.953C120.688 159.035 120.896 159.076 121.131 159.076C121.42 159.076 121.695 159.021 121.957 158.912C122.219 158.799 122.445 158.623 122.637 158.385L123.492 159.363C123.363 159.551 123.182 159.732 122.947 159.908C122.717 160.08 122.439 160.221 122.115 160.33C121.791 160.439 121.424 160.494 121.014 160.494ZM126.375 155.514V160.377H124.547V154.037H126.264L126.375 155.514ZM128.268 153.99L128.238 155.695C128.16 155.683 128.059 155.674 127.934 155.666C127.809 155.654 127.701 155.648 127.611 155.648C127.377 155.648 127.174 155.678 127.002 155.736C126.834 155.791 126.693 155.873 126.58 155.982C126.471 156.092 126.389 156.228 126.334 156.392C126.279 156.553 126.252 156.738 126.252 156.949L125.906 156.779C125.906 156.361 125.947 155.978 126.029 155.631C126.111 155.283 126.23 154.982 126.387 154.728C126.543 154.471 126.734 154.271 126.961 154.131C127.188 153.99 127.445 153.92 127.734 153.92C127.828 153.92 127.924 153.926 128.021 153.937C128.119 153.949 128.201 153.967 128.268 153.99Z" fill="white"/>
</g>
<defs>
<filter id="filter0_d_28_31" x="31.3116" y="28" width="129.377" height="129.377" filterUnits="userSpaceOnUse" color-interpolation-filters="sRGB">
<feFlood flood-opacity="0" result="BackgroundImageFix"/>
<feColorMatrix in="SourceAlpha" type="matrix" values="0 0 0 0 0 0 0 0 0 0 0 0 0 0 0 0 0 0 127 0" result="hardAlpha"/>
<feOffset dy="4"/>
<feGaussianBlur stdDeviation="2"/>
<feComposite in2="hardAlpha" operator="out"/>
<feColorMatrix type="matrix" values="0 0 0 0 0 0 0 0 0 0 0 0 0 0 0 0 0 0 0.25 0"/>
<feBlend mode="normal" in2="BackgroundImageFix" result="effect1_dropShadow_28_31"/>
<feBlend mode="normal" in="SourceGraphic" in2="effect1_dropShadow_28_31" result="shape"/>
</filter>
<filter id="filter1_d_28_31" x="59.8203" y="151.377" width="72.4473" height="17.1172" filterUnits="userSpaceOnUse" color-interpolation-filters="sRGB">
<feFlood flood-opacity="0" result="BackgroundImageFix"/>
<feColorMatrix in="SourceAlpha" type="matrix" values="0 0 0 0 0 0 0 0 0 0 0 0 0 0 0 0 0 0 127 0" result="hardAlpha"/>
<feOffset dy="4"/>
<feGaussianBlur stdDeviation="2"/>
<feComposite in2="hardAlpha" operator="out"/>
<feColorMatrix type="matrix" values="0 0 0 0 0 0 0 0 0 0 0 0 0 0 0 0 0 0 0.25 0"/>
<feBlend mode="normal" in2="BackgroundImageFix" result="effect1_dropShadow_28_31"/>
<feBlend mode="normal" in="SourceGraphic" in2="effect1_dropShadow_28_31" result="shape"/>
</filter>
<clipPath id="clip0_28_31">
<rect width="121.377" height="121.377" fill="white" transform="translate(35.3116 28)"/>
</clipPath>
</defs>
</svg>
